<svg id="Layer_1" data-name="Layer 1" xmlns="http://www.w3.org/2000/svg" viewBox="0 0 392.33 172.26"><defs><style>.cls-1{fill:#000;}</style></defs><title>TL Logo SVG</title><path class="cls-1" d="M0,89.12H29v12.34l-7.6-.35v26H7.55v-26l-7.6.35Z"/><path class="cls-1" d="M34.62,89.12H51.29c8.57,0,15.82,3.62,15.82,13.19,0,5.75-2.22,8.17-7.35,9.88v.31a9.58,9.58,0,0,1,2.32,2.27l8.26,12.34H54.42l-6.05-12.19h-.26v12.19H34.62ZM48.11,106h1c2.26,0,4.53-.36,4.53-3.17s-2.07-3.28-4.43-3.28H48.11Z"/><path class="cls-1" d="M86,127.11H71.34l13.2-38H99.8l13.57,38H98.75l-1.26-4.73H87.05Zm9.11-13.75-1.61-6.71c-.4-1.6-.66-3.27-.91-4.89H92l-2.51,11.6Z"/><path class="cls-1" d="M118,89.12H131.3l12.39,21.06h.41a56.47,56.47,0,0,1-1.15-9.67V89.12h13.19v38H143l-12.16-20h-.39a46,46,0,0,1,.85,7.62v12.34H118Z"/><path class="cls-1" d="M165.45,113.5l.71.56c2.47,1.91,5.45,3.48,8.62,3.48,1.36,0,3.53-.56,3.53-2.27s-1.82-1.86-3.07-2.12l-2.78-.5c-5.4-1-9.93-4.14-9.93-10.08,0-9,8.21-14.06,16.48-14.06a22.68,22.68,0,0,1,12,3.32l-3.73,9.74a14.28,14.28,0,0,0-8-2.88c-1.21,0-3,.45-3,2,0,1.4,1.72,1.6,2.78,1.86l3.11.71c5.86,1.3,10.08,4.43,10.08,10.89,0,9.06-8.26,13.54-16.47,13.54a34.15,34.15,0,0,1-14.62-3.47Z"/><path class="cls-1" d="M255.41,89.12h13.8v25.8H280.8v12.19H255.41Z"/><path class="cls-1" d="M286.69,89.12H300.5v38H286.69Z"/><path class="cls-1" d="M308.7,89.12H322l12.4,21.06h.4a56.49,56.49,0,0,1-1.16-9.67V89.12H346.8v38H333.59l-12.15-20H321a45,45,0,0,1,.86,7.62v12.34H308.7Z"/><path class="cls-1" d="M353.93,89.12h13.46l-.3,16.47h.3a15.56,15.56,0,0,1,1.91-4.29L376,89.12H391l-11.89,18.5,13.17,19.49h-16l-6.54-11.49c-.81-1.45-2-2.87-2.32-4.43h-.3l.3,15.92H353.93Z"/><path class="cls-1" d="M280.29,29.43c.18-3.1-3.1-4.9-7.46-3.9-26.38,6.14-58.23,33.08-72.08,68.52v6.38C219.87,69.22,240.51,46.94,269.63,39c.39,7.54,4.14,10.21,10.09,10.18,9.85,0,21.2-6.22,25.33-8a5.15,5.15,0,0,0,7.9-1.5c1.07-1.88,4-6.17-4.23-3.63s-7.87,3-16.75,4.85C278.8,43.59,280.05,34.07,280.29,29.43Z"/><path class="cls-1" d="M178.75,172.74V162.51C209.12,73.93,279.58,43.28,367.23,56.71v5.53C272.27,61,217.54,85.16,178.75,172.74Z"/><path class="cls-1" d="M265.26,21c4.49,1.09,9.22-2.57,10.58-8.16s-1.16-11-5.65-12.12S261,3.32,259.62,8.92,260.79,19.94,265.26,21Z"/></svg>